<svg width="20" height="20" viewBox="0 0 20 20" fill="none" xmlns="http://www.w3.org/2000/svg">
<path d="M13.7125 6.21248C13.8886 6.04484 14.1229 5.95217 14.366 5.95401C14.6091 5.95585 14.842 6.05206 15.0156 6.22234C15.1891 6.39263 15.2897 6.62366 15.2961 6.8667C15.3025 7.10974 15.2143 7.34577 15.05 7.52498L10.0625 13.7625C9.97674 13.8549 9.87323 13.929 9.75816 13.9804C9.6431 14.0319 9.51884 14.0596 9.39281 14.062C9.26679 14.0643 9.14159 14.0412 9.02469 13.994C8.9078 13.9469 8.80162 13.8766 8.7125 13.7875L5.405 10.48C5.31289 10.3942 5.23901 10.2907 5.18777 10.1757C5.13653 10.0607 5.10898 9.93652 5.10676 9.81064C5.10454 9.68476 5.12769 9.55972 5.17485 9.44299C5.222 9.32625 5.29218 9.22021 5.3812 9.13119C5.47022 9.04216 5.57627 8.97198 5.693 8.92483C5.80974 8.87768 5.93477 8.85452 6.06065 8.85674C6.18653 8.85896 6.31067 8.88652 6.42567 8.93776C6.54067 8.989 6.64417 9.06287 6.73 9.15498L9.3475 11.7712L13.6887 6.23998C13.6966 6.23036 13.7049 6.22118 13.7137 6.21248H13.7125Z" fill="#FCFCFC"/>
</svg>
