<svg width="32" height="32" viewBox="0 0 32 32" fill="none" xmlns="http://www.w3.org/2000/svg">
<g filter="url(#filter0_i_1621_12929)">
<path d="M15.156 5.10599C14.9914 4.5066 15.0717 3.86638 15.3791 3.32618C15.6866 2.78598 16.1961 2.39005 16.7955 2.22549C17.3949 2.06092 18.0351 2.1412 18.5753 2.44866C19.1155 2.75613 19.5114 3.2656 19.676 3.86499L20.651 7.41199V6.40199C20.651 5.78456 20.8962 5.19243 21.3328 4.75584C21.7694 4.31926 22.3615 4.07398 22.979 4.07398C23.5964 4.07398 24.1885 4.31926 24.6251 4.75584C25.0617 5.19243 25.307 5.78456 25.307 6.40199V15.938C25.307 16.004 25.304 16.07 25.299 16.135V18.069C25.299 24.287 22.759 27.022 20.259 28.616C18.26 29.89 14.402 30.498 11.355 28.89C9.38096 27.91 7.79897 26.248 6.93097 24.378C6.65134 23.7655 6.62533 23.0672 6.85861 22.4356C7.09189 21.8039 7.56552 21.2902 8.17616 21.0065C8.7868 20.7227 9.48487 20.692 10.1181 20.9211C10.7512 21.1501 11.2681 21.6203 11.556 22.229C12.218 23.654 13.756 24.714 15.225 24.714C16.2571 24.714 17.2469 24.304 17.9767 23.5742C18.7065 22.8444 19.1165 21.8546 19.1165 20.8225C19.1165 19.7904 18.7065 18.8006 17.9767 18.0708C17.2469 17.341 16.2571 16.931 15.225 16.931C13.535 16.931 12.193 17.868 11.632 19.195C11.5017 19.5037 11.3119 19.7837 11.0733 20.019C10.8348 20.2543 10.5522 20.4403 10.2418 20.5664C9.93131 20.6924 9.59905 20.756 9.264 20.7536C8.92894 20.7511 8.59764 20.6827 8.28905 20.5521C7.98046 20.4216 7.70062 20.2315 7.46553 19.9928C7.23044 19.754 7.04471 19.4713 6.91896 19.1607C6.7932 18.8501 6.72989 18.5178 6.73264 18.1827C6.73538 17.8477 6.80414 17.5165 6.93496 17.208C7.97796 14.743 10.057 12.958 12.565 12.214L8.89096 6.24399C8.56173 5.67143 8.46845 4.99315 8.63093 4.35297C8.7934 3.7128 9.19884 3.16109 9.76128 2.81484C10.3237 2.46859 10.9989 2.35503 11.6436 2.49824C12.2884 2.64146 12.852 3.03018 13.215 3.58199L15.965 8.05098L15.156 5.10599Z" fill="#FFC03A"/>
<path d="M15.156 5.10599C14.9914 4.5066 15.0717 3.86638 15.3791 3.32618C15.6866 2.78598 16.1961 2.39005 16.7955 2.22549C17.3949 2.06092 18.0351 2.1412 18.5753 2.44866C19.1155 2.75613 19.5114 3.2656 19.676 3.86499L20.651 7.41199V6.40199C20.651 5.78456 20.8962 5.19243 21.3328 4.75584C21.7694 4.31926 22.3615 4.07398 22.979 4.07398C23.5964 4.07398 24.1885 4.31926 24.6251 4.75584C25.0617 5.19243 25.307 5.78456 25.307 6.40199V15.938C25.307 16.004 25.304 16.07 25.299 16.135V18.069C25.299 24.287 22.759 27.022 20.259 28.616C18.26 29.89 14.402 30.498 11.355 28.89C9.38096 27.91 7.79897 26.248 6.93097 24.378C6.65134 23.7655 6.62533 23.0672 6.85861 22.4356C7.09189 21.8039 7.56552 21.2902 8.17616 21.0065C8.7868 20.7227 9.48487 20.692 10.1181 20.9211C10.7512 21.1501 11.2681 21.6203 11.556 22.229C12.218 23.654 13.756 24.714 15.225 24.714C16.2571 24.714 17.2469 24.304 17.9767 23.5742C18.7065 22.8444 19.1165 21.8546 19.1165 20.8225C19.1165 19.7904 18.7065 18.8006 17.9767 18.0708C17.2469 17.341 16.2571 16.931 15.225 16.931C13.535 16.931 12.193 17.868 11.632 19.195C11.5017 19.5037 11.3119 19.7837 11.0733 20.019C10.8348 20.2543 10.5522 20.4403 10.2418 20.5664C9.93131 20.6924 9.59905 20.756 9.264 20.7536C8.92894 20.7511 8.59764 20.6827 8.28905 20.5521C7.98046 20.4216 7.70062 20.2315 7.46553 19.9928C7.23044 19.754 7.04471 19.4713 6.91896 19.1607C6.7932 18.8501 6.72989 18.5178 6.73264 18.1827C6.73538 17.8477 6.80414 17.5165 6.93496 17.208C7.97796 14.743 10.057 12.958 12.565 12.214L8.89096 6.24399C8.56173 5.67143 8.46845 4.99315 8.63093 4.35297C8.7934 3.7128 9.19884 3.16109 9.76128 2.81484C10.3237 2.46859 10.9989 2.35503 11.6436 2.49824C12.2884 2.64146 12.852 3.03018 13.215 3.58199L15.965 8.05098L15.156 5.10599Z" fill="url(#paint0_radial_1621_12929)"/>
<path d="M15.156 5.10599C14.9914 4.5066 15.0717 3.86638 15.3791 3.32618C15.6866 2.78598 16.1961 2.39005 16.7955 2.22549C17.3949 2.06092 18.0351 2.1412 18.5753 2.44866C19.1155 2.75613 19.5114 3.2656 19.676 3.86499L20.651 7.41199V6.40199C20.651 5.78456 20.8962 5.19243 21.3328 4.75584C21.7694 4.31926 22.3615 4.07398 22.979 4.07398C23.5964 4.07398 24.1885 4.31926 24.6251 4.75584C25.0617 5.19243 25.307 5.78456 25.307 6.40199V15.938C25.307 16.004 25.304 16.07 25.299 16.135V18.069C25.299 24.287 22.759 27.022 20.259 28.616C18.26 29.89 14.402 30.498 11.355 28.89C9.38096 27.91 7.79897 26.248 6.93097 24.378C6.65134 23.7655 6.62533 23.0672 6.85861 22.4356C7.09189 21.8039 7.56552 21.2902 8.17616 21.0065C8.7868 20.7227 9.48487 20.692 10.1181 20.9211C10.7512 21.1501 11.2681 21.6203 11.556 22.229C12.218 23.654 13.756 24.714 15.225 24.714C16.2571 24.714 17.2469 24.304 17.9767 23.5742C18.7065 22.8444 19.1165 21.8546 19.1165 20.8225C19.1165 19.7904 18.7065 18.8006 17.9767 18.0708C17.2469 17.341 16.2571 16.931 15.225 16.931C13.535 16.931 12.193 17.868 11.632 19.195C11.5017 19.5037 11.3119 19.7837 11.0733 20.019C10.8348 20.2543 10.5522 20.4403 10.2418 20.5664C9.93131 20.6924 9.59905 20.756 9.264 20.7536C8.92894 20.7511 8.59764 20.6827 8.28905 20.5521C7.98046 20.4216 7.70062 20.2315 7.46553 19.9928C7.23044 19.754 7.04471 19.4713 6.91896 19.1607C6.7932 18.8501 6.72989 18.5178 6.73264 18.1827C6.73538 17.8477 6.80414 17.5165 6.93496 17.208C7.97796 14.743 10.057 12.958 12.565 12.214L8.89096 6.24399C8.56173 5.67143 8.46845 4.99315 8.63093 4.35297C8.7934 3.7128 9.19884 3.16109 9.76128 2.81484C10.3237 2.46859 10.9989 2.35503 11.6436 2.49824C12.2884 2.64146 12.852 3.03018 13.215 3.58199L15.965 8.05098L15.156 5.10599Z" fill="url(#paint1_radial_1621_12929)"/>
<path d="M15.156 5.10599C14.9914 4.5066 15.0717 3.86638 15.3791 3.32618C15.6866 2.78598 16.1961 2.39005 16.7955 2.22549C17.3949 2.06092 18.0351 2.1412 18.5753 2.44866C19.1155 2.75613 19.5114 3.2656 19.676 3.86499L20.651 7.41199V6.40199C20.651 5.78456 20.8962 5.19243 21.3328 4.75584C21.7694 4.31926 22.3615 4.07398 22.979 4.07398C23.5964 4.07398 24.1885 4.31926 24.6251 4.75584C25.0617 5.19243 25.307 5.78456 25.307 6.40199V15.938C25.307 16.004 25.304 16.07 25.299 16.135V18.069C25.299 24.287 22.759 27.022 20.259 28.616C18.26 29.89 14.402 30.498 11.355 28.89C9.38096 27.91 7.79897 26.248 6.93097 24.378C6.65134 23.7655 6.62533 23.0672 6.85861 22.4356C7.09189 21.8039 7.56552 21.2902 8.17616 21.0065C8.7868 20.7227 9.48487 20.692 10.1181 20.9211C10.7512 21.1501 11.2681 21.6203 11.556 22.229C12.218 23.654 13.756 24.714 15.225 24.714C16.2571 24.714 17.2469 24.304 17.9767 23.5742C18.7065 22.8444 19.1165 21.8546 19.1165 20.8225C19.1165 19.7904 18.7065 18.8006 17.9767 18.0708C17.2469 17.341 16.2571 16.931 15.225 16.931C13.535 16.931 12.193 17.868 11.632 19.195C11.5017 19.5037 11.3119 19.7837 11.0733 20.019C10.8348 20.2543 10.5522 20.4403 10.2418 20.5664C9.93131 20.6924 9.59905 20.756 9.264 20.7536C8.92894 20.7511 8.59764 20.6827 8.28905 20.5521C7.98046 20.4216 7.70062 20.2315 7.46553 19.9928C7.23044 19.754 7.04471 19.4713 6.91896 19.1607C6.7932 18.8501 6.72989 18.5178 6.73264 18.1827C6.73538 17.8477 6.80414 17.5165 6.93496 17.208C7.97796 14.743 10.057 12.958 12.565 12.214L8.89096 6.24399C8.56173 5.67143 8.46845 4.99315 8.63093 4.35297C8.7934 3.7128 9.19884 3.16109 9.76128 2.81484C10.3237 2.46859 10.9989 2.35503 11.6436 2.49824C12.2884 2.64146 12.852 3.03018 13.215 3.58199L15.965 8.05098L15.156 5.10599Z" fill="url(#paint2_radial_1621_12929)"/>
<path d="M15.156 5.10599C14.9914 4.5066 15.0717 3.86638 15.3791 3.32618C15.6866 2.78598 16.1961 2.39005 16.7955 2.22549C17.3949 2.06092 18.0351 2.1412 18.5753 2.44866C19.1155 2.75613 19.5114 3.2656 19.676 3.86499L20.651 7.41199V6.40199C20.651 5.78456 20.8962 5.19243 21.3328 4.75584C21.7694 4.31926 22.3615 4.07398 22.979 4.07398C23.5964 4.07398 24.1885 4.31926 24.6251 4.75584C25.0617 5.19243 25.307 5.78456 25.307 6.40199V15.938C25.307 16.004 25.304 16.07 25.299 16.135V18.069C25.299 24.287 22.759 27.022 20.259 28.616C18.26 29.89 14.402 30.498 11.355 28.89C9.38096 27.91 7.79897 26.248 6.93097 24.378C6.65134 23.7655 6.62533 23.0672 6.85861 22.4356C7.09189 21.8039 7.56552 21.2902 8.17616 21.0065C8.7868 20.7227 9.48487 20.692 10.1181 20.9211C10.7512 21.1501 11.2681 21.6203 11.556 22.229C12.218 23.654 13.756 24.714 15.225 24.714C16.2571 24.714 17.2469 24.304 17.9767 23.5742C18.7065 22.8444 19.1165 21.8546 19.1165 20.8225C19.1165 19.7904 18.7065 18.8006 17.9767 18.0708C17.2469 17.341 16.2571 16.931 15.225 16.931C13.535 16.931 12.193 17.868 11.632 19.195C11.5017 19.5037 11.3119 19.7837 11.0733 20.019C10.8348 20.2543 10.5522 20.4403 10.2418 20.5664C9.93131 20.6924 9.59905 20.756 9.264 20.7536C8.92894 20.7511 8.59764 20.6827 8.28905 20.5521C7.98046 20.4216 7.70062 20.2315 7.46553 19.9928C7.23044 19.754 7.04471 19.4713 6.91896 19.1607C6.7932 18.8501 6.72989 18.5178 6.73264 18.1827C6.73538 17.8477 6.80414 17.5165 6.93496 17.208C7.97796 14.743 10.057 12.958 12.565 12.214L8.89096 6.24399C8.56173 5.67143 8.46845 4.99315 8.63093 4.35297C8.7934 3.7128 9.19884 3.16109 9.76128 2.81484C10.3237 2.46859 10.9989 2.35503 11.6436 2.49824C12.2884 2.64146 12.852 3.03018 13.215 3.58199L15.965 8.05098L15.156 5.10599Z" fill="url(#paint3_radial_1621_12929)"/>
</g>
<path d="M21.9359 12.04H25.3069V6.34802C25.3069 5.7306 25.0616 5.13846 24.625 4.70187C24.1884 4.26529 23.5963 4.02002 22.9789 4.02002C22.3615 4.02002 21.7693 4.26529 21.3327 4.70187C20.8962 5.13846 20.6509 5.7306 20.6509 6.34802V7.35802L21.9359 12.038V12.04Z" fill="url(#paint4_linear_1621_12929)"/>
<path d="M21.9359 12.04H25.3069V6.34802C25.3069 5.7306 25.0616 5.13846 24.625 4.70187C24.1884 4.26529 23.5963 4.02002 22.9789 4.02002C22.3615 4.02002 21.7693 4.26529 21.3327 4.70187C20.8962 5.13846 20.6509 5.7306 20.6509 6.34802V7.35802L21.9359 12.038V12.04Z" fill="url(#paint5_linear_1621_12929)"/>
<path d="M21.9359 12.04H25.3069V6.34802C25.3069 5.7306 25.0616 5.13846 24.625 4.70187C24.1884 4.26529 23.5963 4.02002 22.9789 4.02002C22.3615 4.02002 21.7693 4.26529 21.3327 4.70187C20.8962 5.13846 20.6509 5.7306 20.6509 6.34802V7.35802L21.9359 12.038V12.04Z" fill="url(#paint6_radial_1621_12929)"/>
<path d="M21.9359 12.04H25.3069V6.34802C25.3069 5.7306 25.0616 5.13846 24.625 4.70187C24.1884 4.26529 23.5963 4.02002 22.9789 4.02002C22.3615 4.02002 21.7693 4.26529 21.3327 4.70187C20.8962 5.13846 20.6509 5.7306 20.6509 6.34802V7.35802L21.9359 12.038V12.04Z" fill="url(#paint7_linear_1621_12929)"/>
<path d="M21.9359 12.04H25.3069V6.34802C25.3069 5.7306 25.0616 5.13846 24.625 4.70187C24.1884 4.26529 23.5963 4.02002 22.9789 4.02002C22.3615 4.02002 21.7693 4.26529 21.3327 4.70187C20.8962 5.13846 20.6509 5.7306 20.6509 6.34802V7.35802L21.9359 12.038V12.04Z" fill="url(#paint8_linear_1621_12929)"/>
<path d="M15.1559 5.10599C14.9913 4.5066 15.0716 3.86638 15.3791 3.32618C15.6865 2.78598 16.196 2.39005 16.7954 2.22549C17.3948 2.06092 18.035 2.1412 18.5752 2.44866C19.1154 2.75613 19.5113 3.2656 19.6759 3.86499L21.8879 12.039H18.2429C18.1829 11.77 18.1299 11.567 17.9769 11.319L15.9649 8.05098L15.1559 5.10599Z" fill="url(#paint9_linear_1621_12929)"/>
<path d="M15.1559 5.10599C14.9913 4.5066 15.0716 3.86638 15.3791 3.32618C15.6865 2.78598 16.196 2.39005 16.7954 2.22549C17.3948 2.06092 18.035 2.1412 18.5752 2.44866C19.1154 2.75613 19.5113 3.2656 19.6759 3.86499L21.8879 12.039H18.2429C18.1829 11.77 18.1299 11.567 17.9769 11.319L15.9649 8.05098L15.1559 5.10599Z" fill="url(#paint10_linear_1621_12929)"/>
<path d="M15.1559 5.10599C14.9913 4.5066 15.0716 3.86638 15.3791 3.32618C15.6865 2.78598 16.196 2.39005 16.7954 2.22549C17.3948 2.06092 18.035 2.1412 18.5752 2.44866C19.1154 2.75613 19.5113 3.2656 19.6759 3.86499L21.8879 12.039H18.2429C18.1829 11.77 18.1299 11.567 17.9769 11.319L15.9649 8.05098L15.1559 5.10599Z" fill="url(#paint11_radial_1621_12929)"/>
<path d="M15.1559 5.10599C14.9913 4.5066 15.0716 3.86638 15.3791 3.32618C15.6865 2.78598 16.196 2.39005 16.7954 2.22549C17.3948 2.06092 18.035 2.1412 18.5752 2.44866C19.1154 2.75613 19.5113 3.2656 19.6759 3.86499L21.8879 12.039H18.2429C18.1829 11.77 18.1299 11.567 17.9769 11.319L15.9649 8.05098L15.1559 5.10599Z" fill="url(#paint12_linear_1621_12929)"/>
<path d="M9.72205 2.73995C9.14861 3.09317 8.73893 3.65967 8.5831 4.31489C8.42726 4.9701 8.53803 5.66039 8.89104 6.23395L12.565 12.204C13.411 11.954 14.703 12.043 15.622 12.043H19.138C18.013 11.469 17.809 10.995 17.603 10.66L13.215 3.57195C12.862 2.99858 12.2957 2.58892 11.6406 2.43308C10.9856 2.27724 10.2955 2.38698 9.72205 2.73995Z" fill="url(#paint13_linear_1621_12929)"/>
<path d="M9.72205 2.73995C9.14861 3.09317 8.73893 3.65967 8.5831 4.31489C8.42726 4.9701 8.53803 5.66039 8.89104 6.23395L12.565 12.204C13.411 11.954 14.703 12.043 15.622 12.043H19.138C18.013 11.469 17.809 10.995 17.603 10.66L13.215 3.57195C12.862 2.99858 12.2957 2.58892 11.6406 2.43308C10.9856 2.27724 10.2955 2.38698 9.72205 2.73995Z" fill="url(#paint14_linear_1621_12929)"/>
<path d="M9.72205 2.73995C9.14861 3.09317 8.73893 3.65967 8.5831 4.31489C8.42726 4.9701 8.53803 5.66039 8.89104 6.23395L12.565 12.204C13.411 11.954 14.703 12.043 15.622 12.043H19.138C18.013 11.469 17.809 10.995 17.603 10.66L13.215 3.57195C12.862 2.99858 12.2957 2.58892 11.6406 2.43308C10.9856 2.27724 10.2955 2.38698 9.72205 2.73995Z" fill="url(#paint15_linear_1621_12929)"/>
<path d="M9.72205 2.73995C9.14861 3.09317 8.73893 3.65967 8.5831 4.31489C8.42726 4.9701 8.53803 5.66039 8.89104 6.23395L12.565 12.204C13.411 11.954 14.703 12.043 15.622 12.043H19.138C18.013 11.469 17.809 10.995 17.603 10.66L13.215 3.57195C12.862 2.99858 12.2957 2.58892 11.6406 2.43308C10.9856 2.27724 10.2955 2.38698 9.72205 2.73995Z" fill="url(#paint16_radial_1621_12929)"/>
<g filter="url(#filter1_f_1621_12929)">
<path d="M9.88208 22.488C10.6761 23.966 12.4861 26.034 15.0721 26.33" stroke="url(#paint17_linear_1621_12929)" stroke-width="1.5" stroke-linecap="round"/>
</g>
<g filter="url(#filter2_f_1621_12929)">
<path d="M17.1079 12.455C19.6549 12.995 24.4119 15.875 23.0649 23.075" stroke="url(#paint18_radial_1621_12929)" stroke-width="2" stroke-linecap="round"/>
</g>
<g filter="url(#filter3_f_1621_12929)">
<path d="M11.4241 3.60901L17.5701 13.489" stroke="url(#paint19_linear_1621_12929)" stroke-width="1.5" stroke-linecap="round"/>
</g>
<g filter="url(#filter4_f_1621_12929)">
<path d="M18.137 3.93994L21.068 14.6239" stroke="url(#paint20_linear_1621_12929)" stroke-width="1.5" stroke-linecap="round"/>
</g>
<g filter="url(#filter5_f_1621_12929)">
<path d="M23.385 6.87097V17.413" stroke="url(#paint21_linear_1621_12929)" stroke-linecap="round"/>
</g>
<defs>
<filter id="filter0_i_1621_12929" x="6.70068" y="1.54185" width="19.2062" height="28.3166" filterUnits="userSpaceOnUse" color-interpolation-filters="sRGB">
<feFlood flood-opacity="0" result="BackgroundImageFix"/>
<feBlend mode="normal" in="SourceGraphic" in2="BackgroundImageFix" result="shape"/>
<feColorMatrix in="SourceAlpha" type="matrix" values="0 0 0 0 0 0 0 0 0 0 0 0 0 0 0 0 0 0 127 0" result="hardAlpha"/>
<feOffset dx="0.6" dy="-0.6"/>
<feGaussianBlur stdDeviation="1"/>
<feComposite in2="hardAlpha" operator="arithmetic" k2="-1" k3="1"/>
<feColorMatrix type="matrix" values="0 0 0 0 0.909804 0 0 0 0 0.494118 0 0 0 0 0.301961 0 0 0 1 0"/>
<feBlend mode="normal" in2="shape" result="effect1_innerShadow_1621_12929"/>
</filter>
<filter id="filter1_f_1621_12929" x="7.63184" y="20.2379" width="9.69043" height="8.34216" filterUnits="userSpaceOnUse" color-interpolation-filters="sRGB">
<feFlood flood-opacity="0" result="BackgroundImageFix"/>
<feBlend mode="normal" in="SourceGraphic" in2="BackgroundImageFix" result="shape"/>
<feGaussianBlur stdDeviation="0.75" result="effect1_foregroundBlur_1621_12929"/>
</filter>
<filter id="filter2_f_1621_12929" x="14.1077" y="9.45471" width="12.1926" height="16.6205" filterUnits="userSpaceOnUse" color-interpolation-filters="sRGB">
<feFlood flood-opacity="0" result="BackgroundImageFix"/>
<feBlend mode="normal" in="SourceGraphic" in2="BackgroundImageFix" result="shape"/>
<feGaussianBlur stdDeviation="1" result="effect1_foregroundBlur_1621_12929"/>
</filter>
<filter id="filter3_f_1621_12929" x="9.17407" y="1.35889" width="10.646" height="14.3802" filterUnits="userSpaceOnUse" color-interpolation-filters="sRGB">
<feFlood flood-opacity="0" result="BackgroundImageFix"/>
<feBlend mode="normal" in="SourceGraphic" in2="BackgroundImageFix" result="shape"/>
<feGaussianBlur stdDeviation="0.75" result="effect1_foregroundBlur_1621_12929"/>
</filter>
<filter id="filter4_f_1621_12929" x="15.8867" y="1.6897" width="7.4314" height="15.1844" filterUnits="userSpaceOnUse" color-interpolation-filters="sRGB">
<feFlood flood-opacity="0" result="BackgroundImageFix"/>
<feBlend mode="normal" in="SourceGraphic" in2="BackgroundImageFix" result="shape"/>
<feGaussianBlur stdDeviation="0.75" result="effect1_foregroundBlur_1621_12929"/>
</filter>
<filter id="filter5_f_1621_12929" x="21.885" y="5.37097" width="3" height="13.542" filterUnits="userSpaceOnUse" color-interpolation-filters="sRGB">
<feFlood flood-opacity="0" result="BackgroundImageFix"/>
<feBlend mode="normal" in="SourceGraphic" in2="BackgroundImageFix" result="shape"/>
<feGaussianBlur stdDeviation="0.5" result="effect1_foregroundBlur_1621_12929"/>
</filter>
<radialGradient id="paint0_radial_1621_12929" cx="0" cy="0" r="1" gradientUnits="userSpaceOnUse" gradientTransform="translate(9.25997 20.772) rotate(90) scale(0.53295 1.14361)">
<stop stop-color="#BE6E00"/>
<stop offset="0.792" stop-color="#BE6E00" stop-opacity="0"/>
</radialGradient>
<radialGradient id="paint1_radial_1621_12929" cx="0" cy="0" r="1" gradientUnits="userSpaceOnUse" gradientTransform="translate(16.506 22.358) rotate(52.5999) scale(3.44386 4.22147)">
<stop offset="0.416" stop-color="#D08C3B"/>
<stop offset="0.882" stop-color="#D08C3B" stop-opacity="0"/>
</radialGradient>
<radialGradient id="paint2_radial_1621_12929" cx="0" cy="0" r="1" gradientUnits="userSpaceOnUse" gradientTransform="translate(16.6713 19.6349) rotate(-38.12) scale(5.88904 5.60323)">
<stop stop-color="#E17C51"/>
<stop offset="1" stop-color="#E17C51" stop-opacity="0"/>
</radialGradient>
<radialGradient id="paint3_radial_1621_12929" cx="0" cy="0" r="1" gradientUnits="userSpaceOnUse" gradientTransform="translate(27.6325 12.8406) rotate(147.419) scale(11.9012 24.4655)">
<stop stop-color="#FFE452"/>
<stop offset="1" stop-color="#FFE452" stop-opacity="0"/>
</radialGradient>
<linearGradient id="paint4_linear_1621_12929" x1="20.3849" y1="9.41002" x2="23.3969" y2="9.41002" gradientUnits="userSpaceOnUse">
<stop stop-color="#DB8E1E"/>
<stop offset="1" stop-color="#DB8E1E" stop-opacity="0"/>
</linearGradient>
<linearGradient id="paint5_linear_1621_12929" x1="20.8689" y1="9.78602" x2="21.8279" y2="9.53502" gradientUnits="userSpaceOnUse">
<stop stop-color="#E37917"/>
<stop offset="1" stop-color="#E37917" stop-opacity="0"/>
</linearGradient>
<radialGradient id="paint6_radial_1621_12929" cx="0" cy="0" r="1" gradientUnits="userSpaceOnUse" gradientTransform="translate(21.8189 12.297) rotate(-103.646) scale(3.19215 2.34831)">
<stop stop-color="#FFDD4B"/>
<stop offset="1" stop-color="#FFDD4B" stop-opacity="0"/>
</radialGradient>
<linearGradient id="paint7_linear_1621_12929" x1="25.8129" y1="10.327" x2="23.9259" y2="10.327" gradientUnits="userSpaceOnUse">
<stop stop-color="#FFDE3F"/>
<stop offset="1" stop-color="#FFDE3F" stop-opacity="0"/>
</linearGradient>
<linearGradient id="paint8_linear_1621_12929" x1="25.4709" y1="10.928" x2="24.7329" y2="10.928" gradientUnits="userSpaceOnUse">
<stop stop-color="#FAC54C"/>
<stop offset="1" stop-color="#FAC54C" stop-opacity="0"/>
</linearGradient>
<linearGradient id="paint9_linear_1621_12929" x1="15.6689" y1="9.62498" x2="18.5049" y2="8.71898" gradientUnits="userSpaceOnUse">
<stop stop-color="#D58430"/>
<stop offset="1" stop-color="#D58430" stop-opacity="0"/>
</linearGradient>
<linearGradient id="paint10_linear_1621_12929" x1="16.3499" y1="9.28398" x2="17.2509" y2="8.90398" gradientUnits="userSpaceOnUse">
<stop stop-color="#E37917"/>
<stop offset="1" stop-color="#E37917" stop-opacity="0"/>
</linearGradient>
<radialGradient id="paint11_radial_1621_12929" cx="0" cy="0" r="1" gradientUnits="userSpaceOnUse" gradientTransform="translate(14.6824 2.70323) rotate(41.186) scale(3.04972 5.90543)">
<stop stop-color="#DEA23E"/>
<stop offset="1" stop-color="#DEA23E" stop-opacity="0"/>
</radialGradient>
<linearGradient id="paint12_linear_1621_12929" x1="21.4189" y1="8.31198" x2="19.4819" y2="9.06198" gradientUnits="userSpaceOnUse">
<stop stop-color="#FFE54D"/>
<stop offset="1" stop-color="#FFE54D" stop-opacity="0"/>
</linearGradient>
<linearGradient id="paint13_linear_1621_12929" x1="10.982" y1="10.449" x2="14.308" y2="8.52095" gradientUnits="userSpaceOnUse">
<stop stop-color="#D58441"/>
<stop offset="1" stop-color="#EFA230" stop-opacity="0"/>
</linearGradient>
<linearGradient id="paint14_linear_1621_12929" x1="16.325" y1="7.49995" x2="14.794" y2="8.59795" gradientUnits="userSpaceOnUse">
<stop stop-color="#FFE946"/>
<stop offset="1" stop-color="#FFE946" stop-opacity="0"/>
</linearGradient>
<linearGradient id="paint15_linear_1621_12929" x1="19.138" y1="12.148" x2="17.208" y2="11.547" gradientUnits="userSpaceOnUse">
<stop offset="0.612" stop-color="#FFD747"/>
<stop offset="1" stop-color="#FFD747" stop-opacity="0"/>
</linearGradient>
<radialGradient id="paint16_radial_1621_12929" cx="0" cy="0" r="1" gradientUnits="userSpaceOnUse" gradientTransform="translate(9.3573 2.82891) rotate(54.462) scale(3.54768 4.64569)">
<stop stop-color="#DEA23E"/>
<stop offset="1" stop-color="#DEA23E" stop-opacity="0"/>
</radialGradient>
<linearGradient id="paint17_linear_1621_12929" x1="10.1781" y1="22.488" x2="17.0121" y2="27.143" gradientUnits="userSpaceOnUse">
<stop stop-color="#FFD535"/>
<stop offset="1" stop-color="#FFD535" stop-opacity="0"/>
</linearGradient>
<radialGradient id="paint18_radial_1621_12929" cx="0" cy="0" r="1" gradientUnits="userSpaceOnUse" gradientTransform="translate(22.648 15.8673) rotate(153.789) scale(4.29914 20.7123)">
<stop stop-color="#FFEB5C"/>
<stop offset="1" stop-color="#FFE94A" stop-opacity="0"/>
</radialGradient>
<linearGradient id="paint19_linear_1621_12929" x1="14.0711" y1="6.54001" x2="20.1181" y2="15.351" gradientUnits="userSpaceOnUse">
<stop stop-color="#FFE746"/>
<stop offset="1" stop-color="#FFE746" stop-opacity="0"/>
</linearGradient>
<linearGradient id="paint20_linear_1621_12929" x1="20.217" y1="6.53994" x2="26.264" y2="15.3509" gradientUnits="userSpaceOnUse">
<stop stop-color="#FFE746"/>
<stop offset="1" stop-color="#FFE746" stop-opacity="0"/>
</linearGradient>
<linearGradient id="paint21_linear_1621_12929" x1="-nan" y1="-nan" x2="-nan" y2="-nan" gradientUnits="userSpaceOnUse">
<stop stop-color="#FFE949"/>
<stop offset="1" stop-color="#FFE949" stop-opacity="0"/>
</linearGradient>
</defs>
</svg>
