<svg width="64" height="64" viewBox="0 0 64 64" fill="none" xmlns="http://www.w3.org/2000/svg">
<rect width="64" height="64" rx="32" fill="#4286FA" fill-opacity="0.1"/>
<g clip-path="url(#clip0_1331_12300)">
<path d="M32 16C23.1625 16 16 23.1625 16 32C16 40.8375 23.1625 48 32 48C40.8375 48 48 40.8375 48 32C48 23.1625 40.8375 16 32 16ZM32 45.3312C24.6375 45.3312 18.6688 39.3625 18.6688 32C18.6688 24.6375 24.6375 18.6688 32 18.6688C39.3625 18.6688 45.3312 24.6375 45.3312 32C45.3312 39.3625 39.3625 45.3312 32 45.3312ZM30.6687 29.3313L27.3313 26L25.3313 28L33.3312 36V21.3313H30.6625V29.3313H30.6687Z" fill="#4286FA"/>
</g>
<defs>
<clipPath id="clip0_1331_12300">
<rect width="32" height="32" fill="white" transform="translate(16 16)"/>
</clipPath>
</defs>
</svg>
