<svg width="64" height="64" viewBox="0 0 64 64" fill="none" xmlns="http://www.w3.org/2000/svg">
<path d="M45.3333 21.3332V13.3332C45.3333 12.6259 45.0523 11.9477 44.5522 11.4476C44.0522 10.9475 43.3739 10.6665 42.6666 10.6665H16C14.5855 10.6665 13.2289 11.2284 12.2287 12.2286C11.2285 13.2288 10.6666 14.5853 10.6666 15.9998M10.6666 15.9998C10.6666 17.4143 11.2285 18.7709 12.2287 19.7711C13.2289 20.7713 14.5855 21.3332 16 21.3332H48C48.7072 21.3332 49.3855 21.6141 49.8856 22.1142C50.3857 22.6143 50.6666 23.2926 50.6666 23.9998V31.9998M10.6666 15.9998V47.9998C10.6666 49.4143 11.2285 50.7709 12.2287 51.7711C13.2289 52.7713 14.5855 53.3332 16 53.3332H48C48.7072 53.3332 49.3855 53.0522 49.8856 52.5521C50.3857 52.052 50.6666 51.3737 50.6666 50.6665V42.6665" stroke="#FCFCFC" stroke-width="5.33333" stroke-linecap="round" stroke-linejoin="round"/>
<path d="M53.3334 32V42.6667H42.6667C41.2522 42.6667 39.8957 42.1048 38.8955 41.1046C37.8953 40.1044 37.3334 38.7478 37.3334 37.3333C37.3334 35.9188 37.8953 34.5623 38.8955 33.5621C39.8957 32.5619 41.2522 32 42.6667 32H53.3334Z" stroke="#FCFCFC" stroke-width="5.33333" stroke-linecap="round" stroke-linejoin="round"/>
</svg>
