<svg width="48" height="48" viewBox="0 0 48 48" fill="none" xmlns="http://www.w3.org/2000/svg">
<path d="M39.3303 33.622C38.7765 34.913 38.0922 36.1441 37.2883 37.296C36.2143 38.83 35.3323 39.89 34.6563 40.48C33.6063 41.444 32.4783 41.94 31.2723 41.968C30.4083 41.968 29.3643 41.722 28.1483 41.222C26.9283 40.724 25.8083 40.48 24.7823 40.48C23.7083 40.48 22.5563 40.724 21.3223 41.222C20.0903 41.722 19.0943 41.984 18.3323 42.008C17.1783 42.058 16.0243 41.55 14.8743 40.48C14.1403 39.84 13.2223 38.74 12.1203 37.184C10.9403 35.526 9.97028 33.596 9.21028 31.402C8.39628 29.028 7.98828 26.732 7.98828 24.508C7.98828 21.962 8.53828 19.764 9.64028 17.924C10.4738 16.479 11.6654 15.2729 13.1003 14.422C14.5152 13.5734 16.1305 13.1164 17.7803 13.098C18.7003 13.098 19.9063 13.382 21.4003 13.942C22.8943 14.502 23.8543 14.786 24.2723 14.786C24.5883 14.786 25.6503 14.452 27.4583 13.79C29.1643 13.176 30.6043 12.922 31.7843 13.022C34.9843 13.28 37.3863 14.54 38.9843 16.812C36.1243 18.546 34.7103 20.972 34.7383 24.086C34.7623 26.512 35.6443 28.53 37.3723 30.132C38.1362 30.8631 39.0276 31.4481 40.0023 31.858C39.7903 32.472 39.5663 33.0581 39.3303 33.622ZM31.9963 4.76005C31.9963 6.66005 31.3003 8.43605 29.9183 10.078C28.2463 12.03 26.2263 13.16 24.0363 12.982C24.0076 12.7431 23.9936 12.5027 23.9943 12.262C23.9943 10.436 24.7863 8.48405 26.2003 6.88605C26.9043 6.07805 27.8003 5.40405 28.8863 4.86805C29.9703 4.34005 30.9943 4.04805 31.9583 3.99805C31.9843 4.25405 31.9963 4.50805 31.9963 4.76005Z" fill="#121121"/>
</svg>
