<svg width="24" height="24" viewBox="0 0 24 24" fill="none" xmlns="http://www.w3.org/2000/svg">
<g clip-path="url(#clip0_65_1312)">
<path d="M1.3616 8.6402L1.5808 9.4082L1.3616 8.6402ZM22.6384 8.6402L22.8576 7.8706L22.6384 8.6386V8.6402ZM7.328 19.7634L8.032 20.1474L7.328 19.7634ZM16.672 19.7634L17.3728 19.381L16.6704 19.765L16.672 19.7634ZM4.7936 6.0114L4.0512 5.7154L4.7936 6.0114ZM3.256 7.7026C3.18218 7.89844 3.18805 8.11541 3.27235 8.30698C3.35664 8.49854 3.51266 8.64945 3.70692 8.72732C3.90119 8.8052 4.11824 8.80384 4.31151 8.72354C4.50479 8.64324 4.65891 8.4904 4.7408 8.2978L3.256 7.7026ZM19.2032 6.0114L19.9456 5.7154L19.2032 6.0114ZM19.256 8.2978C19.2935 8.39741 19.3506 8.48853 19.4238 8.56581C19.497 8.6431 19.5849 8.70499 19.6824 8.74787C19.7798 8.79075 19.8848 8.81375 19.9913 8.81552C20.0977 8.81729 20.2034 8.7978 20.3023 8.75819C20.4011 8.71858 20.491 8.65965 20.5667 8.58484C20.6425 8.51004 20.7025 8.42087 20.7434 8.32256C20.7842 8.22425 20.805 8.11877 20.8046 8.01232C20.8041 7.90586 20.7825 7.80056 20.7408 7.7026L19.256 8.2978ZM22.3984 9.3858V14.7362H23.9984V9.38419H22.3984V9.3858ZM17.936 19.2002H17.0688V20.8002H17.936V19.2002ZM6.9312 19.2002H6.064V20.8002H6.9312V19.2002ZM1.6 14.7362V9.38419H0V14.7362H1.6ZM1.5808 9.4082C8.39067 7.46243 15.6093 7.46243 22.4192 9.4082L22.8576 7.8706C15.7612 5.84318 8.23884 5.84318 1.1424 7.8706L1.5808 9.4082ZM6.064 19.2002C4.88007 19.2002 3.74464 18.7299 2.90748 17.8927C2.07031 17.0556 1.6 15.9201 1.6 14.7362H0C0 16.3445 0.638884 17.8869 1.7761 19.0241C2.91333 20.1613 4.45573 20.8002 6.064 20.8002V19.2002ZM6.6272 19.381C6.65702 19.3264 6.70097 19.2808 6.75445 19.249C6.80793 19.2172 6.86898 19.2003 6.9312 19.2002V20.8002C7.15625 20.8006 7.37723 20.7402 7.57074 20.6252C7.76424 20.5103 7.92307 20.3452 8.0304 20.1474L6.6272 19.381ZM8.0304 20.1474C9.744 17.0066 14.2544 17.0066 15.9696 20.1474L17.3728 19.381C15.0528 15.1282 8.9456 15.1282 6.6272 19.381L8.0304 20.1474ZM17.0688 19.2002C17.1968 19.2002 17.312 19.269 17.3728 19.381L15.9696 20.1474C16.0769 20.3452 16.2358 20.5103 16.4293 20.6252C16.6228 20.7402 16.8437 20.8006 17.0688 20.8002V19.2002ZM22.4 14.7362C22.4 15.9201 21.9297 17.0556 21.0925 17.8927C20.2554 18.7299 19.1199 19.2002 17.936 19.2002V20.8002C19.5443 20.8002 21.0867 20.1613 22.2239 19.0241C23.3611 17.8869 24 16.3445 24 14.7362H22.4ZM24 9.38419C23.9999 9.04203 23.8884 8.70921 23.6822 8.43611C23.4761 8.163 23.1866 7.96448 22.8576 7.8706L22.4192 9.4082C22.4138 9.40681 22.4091 9.40373 22.4056 9.3994C22.4021 9.39507 22.4002 9.38973 22.4 9.38419H24ZM1.6 9.38419C1.59983 9.38973 1.59786 9.39507 1.5944 9.3994C1.59094 9.40373 1.58617 9.40681 1.5808 9.4082L1.1424 7.8722C0.813634 7.96601 0.524338 8.16429 0.318236 8.43707C0.112135 8.70985 0.000428316 9.04231 0 9.38419H1.6ZM4.0528 5.7154L3.2576 7.7026L4.7424 8.2978L5.5376 6.309L4.0528 5.7154ZM18.4624 6.3074L19.2576 8.2978L20.7424 7.7026L19.9472 5.7154L18.4624 6.3074ZM7.7664 4.8002H16.2336V3.2002H7.7664V4.8002ZM19.9472 5.7154C19.6504 4.97304 19.138 4.33665 18.4761 3.88833C17.8142 3.44 17.0331 3.20032 16.2336 3.2002V4.8002C16.7134 4.80012 17.1821 4.94382 17.5794 5.21276C17.9767 5.48171 18.2843 5.86354 18.4624 6.309L19.9472 5.7154ZM5.5376 6.3074C5.716 5.86224 6.02367 5.48074 6.42093 5.2121C6.8182 4.94346 7.28683 4.79999 7.7664 4.8002V3.2002C6.96693 3.20032 6.18584 3.44 5.5239 3.88833C4.86197 4.33665 4.34956 4.97304 4.0528 5.7154L5.5376 6.3074Z" fill="#4286FA"/>
</g>
<defs>
<clipPath id="clip0_65_1312">
<rect width="24" height="24" fill="white"/>
</clipPath>
</defs>
</svg>
