<svg width="24" height="24" viewBox="0 0 24 24" fill="none" xmlns="http://www.w3.org/2000/svg">
<path d="M17.0907 7.48435L17.0933 7.48664L17.0932 7.48666L17.7751 8.11226C18.627 8.89224 19.3087 9.83962 19.7777 10.8951C20.2583 11.9748 20.4999 13.1202 20.5 14.2985C20.5 14.2987 20.5 14.2988 20.5 14.299H20.25C20.2523 15.3946 20.0314 16.4791 19.6008 17.4865L17.0907 7.48435ZM17.0907 7.48435C17.037 7.43644 16.9724 7.40244 16.9025 7.38533L16.843 7.62816M17.0907 7.48435L16.843 7.62816M16.843 7.62816L16.9025 7.38533C16.8326 7.36822 16.7595 7.36854 16.6898 7.38624C16.6201 7.40395 16.5557 7.4385 16.5025 7.48687L16.6705 7.67196M16.843 7.62816L16.6705 7.67196M16.6705 7.67196L16.5025 7.48687C16.4492 7.53524 16.4086 7.59595 16.3843 7.66366L16.3835 7.66594M16.6705 7.67196L16.3835 7.66594M16.3835 7.66594L16.0788 8.54016L16.0786 8.54066M16.3835 7.66594L16.0786 8.54066M16.0786 8.54066C15.9284 8.97453 15.6677 9.42472 15.2983 9.87772L16.0786 8.54066ZM12 22.7263C13.1461 22.7263 14.2569 22.5043 15.3047 22.0673L9.65859 1.53259C9.53203 1.45759 9.37031 1.55603 9.37734 1.70368L9.12761 1.71513L9.12763 1.71557L9.17917 2.8401C9.2132 3.58427 9.12619 4.22877 8.92986 4.7545L8.92982 4.75462C8.68178 5.41982 8.32545 6.03792 7.8694 6.59334C7.55191 6.97945 7.19209 7.3287 6.79668 7.63452C5.77851 8.41725 4.95061 9.42017 4.37496 10.5682L4.37446 10.5692C3.79996 11.7278 3.5007 13.0033 3.5 14.2965V14.2967C3.5 15.4363 3.72468 16.5409 4.16929 17.5823L4.1694 17.5826C4.59851 18.5848 5.21778 19.4944 5.99295 20.2611L5.99307 20.2612C6.77477 21.0333 7.68272 21.642 8.69472 22.0647C9.74285 22.5042 10.8539 22.7263 12 22.7263ZM9.78604 1.31752C9.78592 1.31745 9.7858 1.31737 9.78568 1.3173L13.9997 5.32933C13.2151 3.85166 12.1218 2.69419 10.7536 1.88681L10.7533 1.88665L9.78604 1.31752ZM15.1725 10.1893L15.1726 10.1906L15.1733 10.1983L15.1726 10.1906L15.1725 10.1893ZM16.535 18.7714L16.7109 18.949L16.535 18.7714C15.3236 19.9715 13.7159 20.6302 12 20.6302C10.2842 20.6302 8.67658 19.9716 7.46517 18.7716C6.2581 17.5735 5.59375 15.9872 5.59375 14.299C5.59375 13.318 5.81451 12.3788 6.24962 11.5041L6.24974 11.5038C6.6731 10.6504 7.30451 9.88556 8.07152 9.2967C8.5951 8.89633 9.07 8.43602 9.48652 7.92519C10.0896 7.18941 10.5628 6.36862 10.8913 5.48706L10.8915 5.48664C10.9728 5.26714 11.0409 5.04312 11.0954 4.81578C11.4982 5.2468 11.8493 5.74509 12.1547 6.31246C12.9255 7.75739 13.2652 9.01511 13.1989 10.0621C13.1798 10.3614 13.2287 10.6611 13.3419 10.9388C13.4552 11.2164 13.63 11.4648 13.853 11.6652C14.0465 11.84 14.2729 11.9746 14.5189 12.0612C14.7647 12.1477 15.0252 12.1846 15.2854 12.1697C15.8139 12.1427 16.3 11.9086 16.6532 11.5152L16.6537 11.5147C16.8868 11.2535 17.0978 10.9876 17.2854 10.7168C17.51 11.0402 17.7036 11.3847 17.8652 11.7494L17.8653 11.7497C18.2238 12.5569 18.4062 13.4153 18.4062 14.299C18.4062 15.9873 17.7418 17.5758 16.535 18.7714Z" fill="#EF8A2C" stroke="#EF8A2C" stroke-width="0.5"/>
</svg>
