<svg width="260" height="153" viewBox="0 0 260 153" fill="none" xmlns="http://www.w3.org/2000/svg">
<path d="M49.375 122V105.938H4.5V89.875C12.375 74.875 22.1875 59.0625 40.6875 31.8125H67.3125V90.8125H79.0625V105.938H67.3125V122H49.375ZM21.0625 90.875V91.375H49.75V45.1875H49.375C36.25 64.4375 28.375 76.75 21.0625 90.875Z" fill="#4286FA"/>
<path d="M174.821 76.5001C174.821 101.824 154.266 122.354 128.91 122.354C103.555 122.354 83 101.824 83 76.5001C83 51.1759 103.555 30.6465 128.91 30.6465C154.266 30.6465 174.821 51.1759 174.821 76.5001Z" fill="url(#paint0_linear_2128_52324)"/>
<path d="M147.46 60.2229H142.16C142.16 53.1007 136.224 47.3203 128.91 47.3203C121.596 47.3203 115.66 53.1007 115.66 60.2229H110.36C107.446 60.2229 105.061 62.5453 105.061 65.3839V96.3498C105.061 99.1885 107.446 101.511 110.36 101.511H147.46C150.375 101.511 152.76 99.1885 152.76 96.3498V65.3839C152.76 62.5453 150.375 60.2229 147.46 60.2229ZM128.91 52.4813C133.309 52.4813 136.86 55.9392 136.86 60.2229H120.96C120.96 55.9392 124.511 52.4813 128.91 52.4813ZM147.46 96.3498H110.36V65.3839H147.46V96.3498ZM128.91 75.7059C124.511 75.7059 120.96 72.248 120.96 67.9644H115.66C115.66 75.0866 121.596 80.8669 128.91 80.8669C136.224 80.8669 142.16 75.0866 142.16 67.9644H136.86C136.86 72.248 133.309 75.7059 128.91 75.7059Z" fill="white"/>
<path d="M226.375 122V105.938H181.5V89.875C189.375 74.875 199.188 59.0625 217.688 31.8125H244.312V90.8125H256.062V105.938H244.312V122H226.375ZM198.062 90.875V91.375H226.75V45.1875H226.375C213.25 64.4375 205.375 76.75 198.062 90.875Z" fill="#4286FA"/>
<defs>
<linearGradient id="paint0_linear_2128_52324" x1="77.8117" y1="126.522" x2="332.753" y2="27.282" gradientUnits="userSpaceOnUse">
<stop stop-color="#4174F7"/>
<stop offset="1" stop-color="#42A4FF"/>
</linearGradient>
</defs>
</svg>
