<svg width="203" height="50" viewBox="0 0 203 50" fill="none" xmlns="http://www.w3.org/2000/svg">
<path d="M49.4117 24.6753C49.4117 38.3032 38.3506 49.3506 24.7059 49.3506C11.0612 49.3506 0 38.3032 0 24.6753C0 11.0475 11.0612 0 24.7059 0C38.3506 0 49.4117 11.0475 49.4117 24.6753Z" fill="url(#paint0_linear_769_2779)"/>
<path d="M34.6879 15.9162H31.8359C31.8359 12.0835 28.6416 8.97287 24.7058 8.97287C20.77 8.97287 17.5757 12.0835 17.5757 15.9162H14.7236C13.155 15.9162 11.8716 17.1659 11.8716 18.6934V35.3572C11.8716 36.8848 13.155 38.1346 14.7236 38.1346H34.6879C36.2566 38.1346 37.54 36.8848 37.54 35.3572V18.6934C37.54 17.1659 36.2566 15.9162 34.6879 15.9162ZM24.7058 11.7502C27.073 11.7502 28.9839 13.611 28.9839 15.9162H20.4277C20.4277 13.611 22.3386 11.7502 24.7058 11.7502ZM34.6879 35.3572H14.7236V18.6934H34.6879V35.3572ZM24.7058 24.2481C22.3386 24.2481 20.4277 22.3873 20.4277 20.0821H17.5757C17.5757 23.9148 20.77 27.0254 24.7058 27.0254C28.6416 27.0254 31.8359 23.9148 31.8359 20.0821H28.9839C28.9839 22.3873 27.073 24.2481 24.7058 24.2481Z" fill="white"/>
<path d="M74.7339 28.6497L76.7391 25.606L81.6269 19.5186H87.7859L80.5527 28.2021L88.2514 39.5353H81.9492L77.0793 31.8366L74.9487 33.3047V39.5353H69.488V11.6767H74.9487V24.1021L74.6623 28.6497H74.7339ZM102.736 39.5353L101.679 36.8139H101.518C101.124 37.351 100.73 37.8165 100.337 38.2104C99.9427 38.5924 99.513 38.9087 99.0475 39.1593C98.582 39.41 98.0568 39.595 97.472 39.7143C96.899 39.8337 96.2306 39.8934 95.4667 39.8934C94.6551 39.8934 93.9031 39.7681 93.2108 39.5174C92.5185 39.2548 91.9158 38.8669 91.4025 38.3536C90.9012 37.8285 90.5073 37.172 90.2208 36.3842C89.9344 35.5845 89.7911 34.6415 89.7911 33.5554C89.7911 31.4308 90.4715 29.8671 91.8322 28.8645C93.1929 27.85 95.228 27.289 97.9375 27.1815L101.124 27.0741V25.5702C101.124 24.7466 100.886 24.1379 100.408 23.744C99.9308 23.3501 99.2624 23.1531 98.403 23.1531C97.5436 23.1531 96.7021 23.2785 95.8785 23.5291C95.0669 23.7798 94.2492 24.114 93.4257 24.5317L91.6532 20.9151C92.6558 20.3541 93.7658 19.9125 94.9833 19.5902C96.2008 19.268 97.4779 19.1068 98.8148 19.1068C101.309 19.1068 103.219 19.6917 104.544 20.8614C105.881 22.0312 106.549 23.8096 106.549 26.1968V39.5353H102.736ZM101.124 30.261L99.3161 30.3326C98.588 30.3565 97.9733 30.452 97.472 30.6191C96.9706 30.7862 96.5648 31.013 96.2545 31.2995C95.9561 31.574 95.7353 31.9082 95.592 32.3021C95.4607 32.684 95.3951 33.1137 95.3951 33.5912C95.3951 34.4267 95.598 35.0235 96.0038 35.3816C96.4097 35.7277 96.9408 35.9008 97.5973 35.9008C98.0986 35.9008 98.5641 35.8172 98.9938 35.6501C99.4235 35.4711 99.7935 35.2145 100.104 34.8803C100.426 34.5341 100.677 34.1164 100.856 33.627C101.035 33.1257 101.124 32.5527 101.124 31.9082V30.261ZM120.3 35.5427C120.837 35.5427 121.344 35.483 121.821 35.3637C122.311 35.2443 122.806 35.0951 123.307 34.9161V38.9803C122.794 39.2429 122.156 39.4577 121.392 39.6248C120.64 39.8039 119.816 39.8934 118.921 39.8934C118.05 39.8934 117.238 39.7919 116.486 39.589C115.734 39.3861 115.084 39.034 114.534 38.5327C113.985 38.0194 113.55 37.3391 113.227 36.4916C112.917 35.6322 112.762 34.558 112.762 33.2689V23.6186H110.148V21.309L113.156 19.4828L114.731 15.2575H118.223V19.5186H123.093V23.6186H118.223V33.2689C118.223 34.0447 118.414 34.6177 118.796 34.9877C119.178 35.3577 119.679 35.5427 120.3 35.5427ZM138.973 39.5353L137.917 36.8139H137.756C137.362 37.351 136.968 37.8165 136.574 38.2104C136.18 38.5924 135.751 38.9087 135.285 39.1593C134.82 39.41 134.295 39.595 133.71 39.7143C133.137 39.8337 132.468 39.8934 131.704 39.8934C130.893 39.8934 130.141 39.7681 129.449 39.5174C128.756 39.2548 128.153 38.8669 127.64 38.3536C127.139 37.8285 126.745 37.172 126.459 36.3842C126.172 35.5845 126.029 34.6415 126.029 33.5554C126.029 31.4308 126.709 29.8671 128.07 28.8645C129.431 27.85 131.466 27.289 134.175 27.1815L137.362 27.0741V25.5702C137.362 24.7466 137.123 24.1379 136.646 23.744C136.168 23.3501 135.5 23.1531 134.641 23.1531C133.781 23.1531 132.94 23.2785 132.116 23.5291C131.305 23.7798 130.487 24.114 129.663 24.5317L127.891 20.9151C128.893 20.3541 130.004 19.9125 131.221 19.5902C132.438 19.268 133.716 19.1068 135.052 19.1068C137.547 19.1068 139.457 19.6917 140.782 20.8614C142.119 22.0312 142.787 23.8096 142.787 26.1968V39.5353H138.973ZM137.362 30.261L135.554 30.3326C134.826 30.3565 134.211 30.452 133.71 30.6191C133.208 30.7862 132.803 31.013 132.492 31.2995C132.194 31.574 131.973 31.9082 131.83 32.3021C131.698 32.684 131.633 33.1137 131.633 33.5912C131.633 34.4267 131.836 35.0235 132.242 35.3816C132.647 35.7277 133.179 35.9008 133.835 35.9008C134.336 35.9008 134.802 35.8172 135.232 35.6501C135.661 35.4711 136.031 35.2145 136.342 34.8803C136.664 34.5341 136.914 34.1164 137.094 33.627C137.273 33.1257 137.362 32.5527 137.362 31.9082V30.261ZM153.87 39.5353H148.409V11.6767H153.87V39.5353ZM164.164 29.4912C164.164 31.4845 164.445 32.9884 165.006 34.003C165.567 35.0056 166.48 35.5069 167.745 35.5069C168.998 35.5069 169.906 34.9996 170.467 33.9851C171.028 32.9705 171.308 31.4725 171.308 29.4912C171.308 27.4978 171.028 26.0118 170.467 25.0331C169.906 24.0424 168.987 23.547 167.709 23.547C166.456 23.547 165.549 24.0424 164.988 25.0331C164.439 26.0118 164.164 27.4978 164.164 29.4912ZM176.876 29.4912C176.876 31.1622 176.661 32.6423 176.232 33.9314C175.814 35.2204 175.205 36.3066 174.405 37.1899C173.618 38.0731 172.651 38.7475 171.505 39.213C170.371 39.6666 169.094 39.8934 167.674 39.8934C166.349 39.8934 165.131 39.6666 164.021 39.213C162.911 38.7475 161.95 38.0731 161.139 37.1899C160.339 36.3066 159.712 35.2204 159.259 33.9314C158.805 32.6423 158.578 31.1622 158.578 29.4912C158.578 27.8321 158.787 26.358 159.205 25.0689C159.635 23.7798 160.243 22.6996 161.031 21.8282C161.831 20.945 162.798 20.2766 163.932 19.823C165.066 19.3694 166.349 19.1426 167.781 19.1426C169.106 19.1426 170.323 19.3694 171.433 19.823C172.543 20.2766 173.498 20.945 174.298 21.8282C175.11 22.6996 175.742 23.7798 176.196 25.0689C176.649 26.358 176.876 27.8321 176.876 29.4912ZM198.164 19.5544V22.5265L195.246 23.4396C195.484 23.8454 195.652 24.2692 195.747 24.7108C195.843 25.1405 195.89 25.606 195.89 26.1073C195.89 27.1219 195.729 28.0529 195.407 28.9003C195.085 29.7358 194.607 30.452 193.975 31.0488C193.342 31.6456 192.548 32.1111 191.593 32.4453C190.638 32.7676 189.528 32.9287 188.263 32.9287C187.989 32.9287 187.69 32.9168 187.368 32.8929C187.046 32.8571 186.807 32.8213 186.652 32.7855C186.413 32.9884 186.222 33.2033 186.079 33.43C185.948 33.6449 185.882 33.9075 185.882 34.2178C185.882 34.4685 185.96 34.6714 186.115 34.8266C186.27 34.9698 186.473 35.0891 186.723 35.1846C186.974 35.2682 187.267 35.3279 187.601 35.3637C187.935 35.3875 188.281 35.3995 188.639 35.3995H191.754C192.721 35.3995 193.587 35.5129 194.351 35.7397C195.114 35.9545 195.759 36.2887 196.284 36.7423C196.821 37.1959 197.233 37.7747 197.52 38.479C197.806 39.1713 197.949 40.0008 197.949 40.9676C197.949 42.1016 197.722 43.1221 197.269 44.0292C196.815 44.9483 196.135 45.7241 195.228 46.3567C194.333 47.0013 193.217 47.4907 191.88 47.8249C190.543 48.171 188.997 48.3441 187.243 48.3441C185.882 48.3441 184.694 48.2128 183.68 47.9502C182.665 47.6995 181.818 47.3295 181.137 46.8401C180.457 46.3627 179.944 45.7838 179.598 45.1035C179.263 44.4231 179.096 43.6532 179.096 42.7938C179.096 42.0657 179.222 41.4331 179.472 40.896C179.723 40.3589 180.057 39.8994 180.475 39.5174C180.893 39.1355 181.364 38.8251 181.889 38.5864C182.426 38.3477 182.976 38.1627 183.537 38.0314C183.286 37.9239 183.035 37.7747 182.785 37.5838C182.546 37.3928 182.325 37.172 182.122 36.9213C181.931 36.6707 181.77 36.3961 181.639 36.0977C181.519 35.7874 181.46 35.4651 181.46 35.1309C181.46 34.749 181.513 34.4028 181.621 34.0925C181.74 33.7822 181.907 33.4957 182.122 33.2331C182.337 32.9586 182.606 32.7019 182.928 32.4632C183.25 32.2245 183.614 31.9798 184.02 31.7292C182.97 31.2756 182.134 30.5475 181.513 29.5449C180.905 28.5422 180.6 27.3606 180.6 25.9999C180.6 24.9256 180.767 23.9648 181.102 23.1173C181.436 22.2699 181.925 21.5537 182.57 20.9689C183.214 20.3721 184.014 19.9185 184.969 19.6081C185.924 19.2978 187.022 19.1426 188.263 19.1426C188.502 19.1426 188.77 19.1605 189.069 19.1964C189.367 19.2202 189.66 19.256 189.946 19.3038C190.245 19.3396 190.519 19.3814 190.77 19.4291C191.02 19.4769 191.217 19.5186 191.361 19.5544H198.164ZM183.841 42.3641C183.841 42.6625 183.901 42.949 184.02 43.2235C184.151 43.51 184.36 43.7607 184.647 43.9755C184.933 44.1904 185.309 44.3575 185.775 44.4768C186.24 44.6081 186.813 44.6738 187.493 44.6738C189.355 44.6738 190.758 44.4112 191.701 43.886C192.644 43.3608 193.115 42.6566 193.115 41.7733C193.115 41.0213 192.823 40.52 192.238 40.2694C191.653 40.0187 190.746 39.8934 189.516 39.8934H186.992C186.67 39.8934 186.324 39.9292 185.954 40.0008C185.584 40.0844 185.243 40.2216 184.933 40.4126C184.623 40.6036 184.36 40.8542 184.145 41.1646C183.942 41.4868 183.841 41.8867 183.841 42.3641ZM185.81 26.0715C185.81 27.1577 186.013 27.9992 186.419 28.596C186.825 29.1928 187.44 29.4912 188.263 29.4912C189.123 29.4912 189.743 29.1928 190.125 28.596C190.507 27.9992 190.698 27.1577 190.698 26.0715C190.698 24.9973 190.507 24.1438 190.125 23.5112C189.755 22.8786 189.135 22.5623 188.263 22.5623C186.628 22.5623 185.81 23.732 185.81 26.0715Z" fill="url(#paint1_linear_769_2779)"/>
<defs>
<linearGradient id="paint0_linear_769_2779" x1="-2.79197" y1="51.5939" x2="134.4" y2="-1.81052" gradientUnits="userSpaceOnUse">
<stop stop-color="#4174F7"/>
<stop offset="1" stop-color="#42A4FF"/>
</linearGradient>
<linearGradient id="paint1_linear_769_2779" x1="133.123" y1="5.53531" x2="133.123" y2="48.5353" gradientUnits="userSpaceOnUse">
<stop stop-color="#4282FA"/>
<stop offset="1" stop-color="#6093FF"/>
</linearGradient>
</defs>
</svg>
