<svg width="134" height="33" viewBox="0 0 134 33" fill="none" xmlns="http://www.w3.org/2000/svg">
<path d="M32.7678 16.3636C32.7678 25.401 25.4325 32.7273 16.3839 32.7273C7.33532 32.7273 0 25.401 0 16.3636C0 7.32625 7.33532 0 16.3839 0C25.4325 0 32.7678 7.32625 32.7678 16.3636Z" fill="url(#paint0_linear_3610_2650)"/>
<path d="M23.0036 10.5549H21.1123C21.1123 8.01323 18.994 5.95041 16.3839 5.95041C13.7738 5.95041 11.6555 8.01323 11.6555 10.5549H9.76416C8.72391 10.5549 7.8728 11.3837 7.8728 12.3967V23.4474C7.8728 24.4604 8.72391 25.2893 9.76416 25.2893H23.0036C24.0439 25.2893 24.895 24.4604 24.895 23.4474V12.3967C24.895 11.3837 24.0439 10.5549 23.0036 10.5549ZM16.3839 7.79221C17.9537 7.79221 19.2209 9.0262 19.2209 10.5549H13.5469C13.5469 9.0262 14.8141 7.79221 16.3839 7.79221ZM23.0036 23.4474H9.76416V12.3967H23.0036V23.4474ZM16.3839 16.0803C14.8141 16.0803 13.5469 14.8463 13.5469 13.3176H11.6555C11.6555 15.8593 13.7738 17.9221 16.3839 17.9221C18.994 17.9221 21.1123 15.8593 21.1123 13.3176H19.2209C19.2209 14.8463 17.9537 16.0803 16.3839 16.0803Z" fill="white"/>
<path d="M49.5603 18.4519L50.8901 16.4335L54.1315 12.3966H58.2159L53.4191 18.1551L58.5246 25.6708H54.3452L51.1157 20.5654L49.7028 21.539V25.6708H46.0815V7.19616H49.7028V15.4362L49.5128 18.4519H49.5603ZM68.13 25.6708L67.4295 23.8661H67.3226C67.0614 24.2223 66.8002 24.531 66.539 24.7922C66.2778 25.0455 65.9928 25.2553 65.6841 25.4215C65.3754 25.5877 65.0271 25.7104 64.6393 25.7896C64.2593 25.8687 63.8161 25.9083 63.3095 25.9083C62.7712 25.9083 62.2725 25.8252 61.8134 25.659C61.3543 25.4848 60.9546 25.2276 60.6143 24.8872C60.2818 24.5389 60.0206 24.1036 59.8306 23.5812C59.6406 23.0508 59.5457 22.4255 59.5457 21.7052C59.5457 20.2962 59.9968 19.2593 60.8992 18.5944C61.8016 17.9216 63.1512 17.5496 64.948 17.4783L67.0614 17.4071V16.4098C67.0614 15.8636 66.9031 15.4599 66.5865 15.1987C66.2698 14.9375 65.8266 14.8069 65.2567 14.8069C64.6868 14.8069 64.1287 14.89 63.5825 15.0562C63.0443 15.2224 62.5021 15.4441 61.9559 15.7211L60.7805 13.3227C61.4454 12.9507 62.1815 12.6578 62.9889 12.4441C63.7963 12.2304 64.6432 12.1235 65.5297 12.1235C67.1841 12.1235 68.4506 12.5114 69.3292 13.2871C70.2157 14.0628 70.659 15.2422 70.659 16.8253V25.6708H68.13ZM67.0614 19.5205L65.8622 19.568C65.3794 19.5839 64.9717 19.6472 64.6393 19.758C64.3068 19.8688 64.0377 20.0192 63.8319 20.2092C63.634 20.3912 63.4876 20.6129 63.3926 20.8741C63.3055 21.1274 63.262 21.4123 63.262 21.7289C63.262 22.283 63.3965 22.6788 63.6657 22.9163C63.9348 23.1458 64.287 23.2606 64.7224 23.2606C65.0548 23.2606 65.3635 23.2052 65.6485 23.0944C65.9334 22.9756 66.1788 22.8054 66.3846 22.5838C66.5983 22.3543 66.7646 22.0772 66.8833 21.7527C67.002 21.4202 67.0614 21.0403 67.0614 20.6129V19.5205ZM79.7776 23.0231C80.1338 23.0231 80.4702 22.9835 80.7868 22.9044C81.1113 22.8252 81.4398 22.7263 81.7723 22.6076V25.3028C81.4319 25.4769 81.0084 25.6194 80.5018 25.7302C80.0032 25.8489 79.457 25.9083 78.8633 25.9083C78.2855 25.9083 77.7473 25.841 77.2486 25.7065C76.7499 25.5719 76.3185 25.3384 75.9544 25.0059C75.5903 24.6656 75.3014 24.2144 75.0877 23.6524C74.8819 23.0825 74.779 22.3701 74.779 21.5152V15.1156H73.0455V13.5839L75.0402 12.3729L76.085 9.5708H78.4003V12.3966H81.6298V15.1156H78.4003V21.5152C78.4003 22.0297 78.5269 22.4097 78.7802 22.655C79.0335 22.9004 79.366 23.0231 79.7776 23.0231ZM92.1613 25.6708L91.4608 23.8661H91.3539C91.0927 24.2223 90.8315 24.531 90.5703 24.7922C90.3091 25.0455 90.0241 25.2553 89.7154 25.4215C89.4067 25.5877 89.0584 25.7104 88.6706 25.7896C88.2906 25.8687 87.8474 25.9083 87.3408 25.9083C86.8025 25.9083 86.3039 25.8252 85.8448 25.659C85.3857 25.4848 84.9859 25.2276 84.6456 24.8872C84.3131 24.5389 84.0519 24.1036 83.8619 23.5812C83.672 23.0508 83.577 22.4255 83.577 21.7052C83.577 20.2962 84.0282 19.2593 84.9305 18.5944C85.8329 17.9216 87.1825 17.5496 88.9793 17.4783L91.0927 17.4071V16.4098C91.0927 15.8636 90.9344 15.4599 90.6178 15.1987C90.3012 14.9375 89.8579 14.8069 89.288 14.8069C88.7181 14.8069 88.16 14.89 87.6139 15.0562C87.0756 15.2224 86.5334 15.4441 85.9872 15.7211L84.8118 13.3227C85.4767 12.9507 86.2128 12.6578 87.0202 12.4441C87.8276 12.2304 88.6745 12.1235 89.5611 12.1235C91.2154 12.1235 92.4819 12.5114 93.3605 13.2871C94.247 14.0628 94.6903 15.2422 94.6903 16.8253V25.6708H92.1613ZM91.0927 19.5205L89.8935 19.568C89.4107 19.5839 89.003 19.6472 88.6706 19.758C88.3381 19.8688 88.069 20.0192 87.8632 20.2092C87.6653 20.3912 87.5189 20.6129 87.4239 20.8741C87.3368 21.1274 87.2933 21.4123 87.2933 21.7289C87.2933 22.283 87.4279 22.6788 87.697 22.9163C87.9661 23.1458 88.3183 23.2606 88.7537 23.2606C89.0861 23.2606 89.3949 23.2052 89.6798 23.0944C89.9648 22.9756 90.2101 22.8054 90.4159 22.5838C90.6297 22.3543 90.7959 22.0772 90.9146 21.7527C91.0334 21.4202 91.0927 21.0403 91.0927 20.6129V19.5205ZM102.04 25.6708H98.4185V7.19616H102.04V25.6708ZM108.867 19.01C108.867 20.3319 109.053 21.3292 109.425 22.002C109.797 22.6669 110.402 22.9994 111.242 22.9994C112.073 22.9994 112.674 22.663 113.046 21.9901C113.418 21.3173 113.604 20.3239 113.604 19.01C113.604 17.6881 113.418 16.7026 113.046 16.0536C112.674 15.3966 112.065 15.0681 111.218 15.0681C110.387 15.0681 109.785 15.3966 109.413 16.0536C109.049 16.7026 108.867 17.6881 108.867 19.01ZM117.297 19.01C117.297 20.1181 117.154 21.0997 116.869 21.9545C116.592 22.8094 116.189 23.5297 115.658 24.1155C115.136 24.7012 114.495 25.1484 113.735 25.4571C112.983 25.7579 112.136 25.9083 111.194 25.9083C110.315 25.9083 109.508 25.7579 108.772 25.4571C108.036 25.1484 107.399 24.7012 106.86 24.1155C106.33 23.5297 105.914 22.8094 105.614 21.9545C105.313 21.0997 105.162 20.1181 105.162 19.01C105.162 17.9097 105.301 16.9322 105.578 16.0773C105.863 15.2224 106.267 14.5061 106.789 13.9283C107.319 13.3425 107.961 12.8992 108.713 12.5985C109.464 12.2977 110.315 12.1473 111.265 12.1473C112.144 12.1473 112.951 12.2977 113.687 12.5985C114.424 12.8992 115.057 13.3425 115.587 13.9283C116.125 14.5061 116.545 15.2224 116.846 16.0773C117.146 16.9322 117.297 17.9097 117.297 19.01ZM131.414 12.4204V14.3913L129.479 14.9968C129.637 15.266 129.748 15.547 129.811 15.8398C129.874 16.1248 129.906 16.4335 129.906 16.7659C129.906 17.4388 129.799 18.0562 129.586 18.6182C129.372 19.1722 129.055 19.6472 128.636 20.0429C128.216 20.4387 127.69 20.7474 127.057 20.9691C126.423 21.1828 125.687 21.2896 124.848 21.2896C124.666 21.2896 124.468 21.2817 124.255 21.2659C124.041 21.2421 123.882 21.2184 123.78 21.1946C123.621 21.3292 123.495 21.4717 123.4 21.6221C123.313 21.7646 123.269 21.9387 123.269 22.1445C123.269 22.3107 123.32 22.4453 123.423 22.5482C123.526 22.6432 123.661 22.7223 123.827 22.7857C123.993 22.8411 124.187 22.8806 124.409 22.9044C124.631 22.9202 124.86 22.9281 125.098 22.9281H127.163C127.805 22.9281 128.378 23.0033 128.885 23.1537C129.392 23.2962 129.819 23.5178 130.167 23.8186C130.524 24.1194 130.797 24.5033 130.987 24.9703C131.177 25.4294 131.272 25.9795 131.272 26.6207C131.272 27.3727 131.121 28.0494 130.82 28.651C130.52 29.2605 130.068 29.775 129.467 30.1945C128.873 30.622 128.133 30.9465 127.247 31.1681C126.36 31.3977 125.335 31.5124 124.171 31.5124C123.269 31.5124 122.481 31.4254 121.809 31.2512C121.136 31.085 120.574 30.8396 120.123 30.5151C119.671 30.1985 119.331 29.8146 119.102 29.3634C118.88 28.9122 118.769 28.4017 118.769 27.8318C118.769 27.3489 118.852 26.9294 119.018 26.5732C119.185 26.217 119.406 25.9123 119.683 25.659C119.96 25.4057 120.273 25.1999 120.621 25.0416C120.978 24.8832 121.342 24.7606 121.714 24.6735C121.547 24.6023 121.381 24.5033 121.215 24.3767C121.057 24.25 120.91 24.1036 120.776 23.9374C120.649 23.7711 120.542 23.5891 120.455 23.3912C120.376 23.1854 120.336 22.9717 120.336 22.75C120.336 22.4967 120.372 22.2672 120.443 22.0614C120.522 21.8556 120.633 21.6656 120.776 21.4915C120.918 21.3094 121.096 21.1392 121.31 20.9809C121.524 20.8226 121.765 20.6604 122.034 20.4941C121.338 20.1933 120.784 19.7105 120.372 19.0456C119.968 18.3807 119.766 17.5971 119.766 16.6947C119.766 15.9823 119.877 15.3451 120.099 14.7831C120.321 14.2211 120.645 13.7462 121.073 13.3583C121.5 12.9626 122.03 12.6618 122.664 12.456C123.297 12.2502 124.025 12.1473 124.848 12.1473C125.006 12.1473 125.185 12.1592 125.382 12.1829C125.58 12.1987 125.774 12.2225 125.964 12.2541C126.162 12.2779 126.344 12.3056 126.51 12.3372C126.677 12.3689 126.807 12.3966 126.902 12.4204H131.414ZM121.916 27.5468C121.916 27.7447 121.955 27.9347 122.034 28.1167C122.121 28.3067 122.26 28.4729 122.45 28.6154C122.64 28.7579 122.889 28.8687 123.198 28.9478C123.507 29.0349 123.886 29.0784 124.338 29.0784C125.572 29.0784 126.503 28.9043 127.128 28.556C127.753 28.2077 128.066 27.7407 128.066 27.155C128.066 26.6563 127.872 26.3239 127.484 26.1576C127.096 25.9914 126.495 25.9083 125.679 25.9083H124.005C123.791 25.9083 123.562 25.932 123.317 25.9795C123.071 26.0349 122.846 26.126 122.64 26.2526C122.434 26.3793 122.26 26.5455 122.117 26.7513C121.983 26.965 121.916 27.2302 121.916 27.5468ZM123.222 16.7422C123.222 17.4625 123.356 18.0205 123.625 18.4163C123.894 18.8121 124.302 19.01 124.848 19.01C125.418 19.01 125.83 18.8121 126.083 18.4163C126.336 18.0205 126.463 17.4625 126.463 16.7422C126.463 16.0298 126.336 15.4639 126.083 15.0443C125.838 14.6248 125.426 14.4151 124.848 14.4151C123.764 14.4151 123.222 15.1908 123.222 16.7422Z" fill="url(#paint1_linear_3610_2650)"/>
<defs>
<linearGradient id="paint0_linear_3610_2650" x1="-1.85152" y1="34.2149" x2="89.1283" y2="-1.20066" gradientUnits="userSpaceOnUse">
<stop stop-color="#4174F7"/>
<stop offset="1" stop-color="#42A4FF"/>
</linearGradient>
<linearGradient id="paint1_linear_3610_2650" x1="88.1818" y1="3.67084" x2="88.1818" y2="31.6708" gradientUnits="userSpaceOnUse">
<stop stop-color="#4282FA"/>
<stop offset="1" stop-color="#6093FF"/>
</linearGradient>
</defs>
</svg>
