<svg width="32" height="32" viewBox="0 0 32 32" fill="none" xmlns="http://www.w3.org/2000/svg">
<g clip-path="url(#clip0_1_47)">
<path d="M0 15.3333C0 8.10513 0 4.49103 2.24551 2.24551C4.49103 0 8.10513 0 15.3333 0H16.6667C23.8949 0 27.509 0 29.7545 2.24551C32 4.49103 32 8.10513 32 15.3333V16.6667C32 23.8949 32 27.509 29.7545 29.7545C27.509 32 23.8949 32 16.6667 32H15.3333C8.10513 32 4.49103 32 2.24551 29.7545C0 27.509 0 23.8949 0 16.6667L0 15.3333Z" fill="#34CEFF"/>
<path d="M24.665 7.717L6.93497 14.554C5.72497 15.04 5.73197 15.715 6.71297 16.016L11.265 17.436L21.797 10.791C22.295 10.488 22.75 10.651 22.376 10.983L13.843 18.684H13.841L13.843 18.685L13.529 23.377C13.989 23.377 14.192 23.166 14.45 22.917L16.661 20.767L21.26 24.164C22.108 24.631 22.717 24.391 22.928 23.379L25.947 9.151C26.256 7.912 25.474 7.351 24.665 7.717Z" fill="white"/>
</g>
<defs>
<clipPath id="clip0_1_47">
<rect width="32" height="32" fill="white"/>
</clipPath>
</defs>
</svg>
