<svg width="24" height="25" viewBox="0 0 24 25" fill="none" xmlns="http://www.w3.org/2000/svg">
<g clip-path="url(#clip0_2041_18015)">
<path fill-rule="evenodd" clip-rule="evenodd" d="M3.8493 14.2204H2.81265C1.19566 14.2204 2.37041 10.772 3.73175 10.772H5.3696C5.63213 10.772 6.09512 10.8205 6.32323 10.1683L6.67566 9.15527H4.42974C3.21348 9.15527 2.26673 9.58542 1.58262 10.3071C0.400883 11.5422 0.000152811 13.4711 0.283438 14.3938C0.552953 15.2473 1.28546 15.8092 2.43257 15.8231L3.32404 15.8301H4.42285L4.69237 15.0183C4.89273 14.4424 4.44351 14.2204 3.8493 14.2204ZM16.4677 12.7911L16.8064 11.6878H13.1922C12.591 11.6878 12.3215 11.8544 12.2178 12.2013L11.8792 13.3045H15.4934C16.0946 13.3045 16.3641 13.138 16.4677 12.7911ZM11.3402 14.7338L11.0016 15.837H14.6157C15.21 15.837 15.4864 15.6705 15.5901 15.3236L15.9288 14.2204H12.3145C11.7203 14.2204 11.4508 14.3869 11.3402 14.7338ZM17.3109 10.2654L17.6494 9.16226H14.0353C13.4341 9.16226 13.1646 9.32869 13.0609 9.67561L12.7222 10.7789H16.3365C16.9308 10.7789 17.2002 10.6123 17.3109 10.2654ZM11.8515 10.4875C11.6996 9.46059 11.1536 9.16226 9.82682 9.16226H7.40817L5.99843 13.3045H6.8899C7.42194 13.3045 7.69146 13.3114 7.97484 12.5482L8.56217 10.772H9.46052C10.2277 10.772 10.0548 11.7364 9.66787 12.673C9.32232 13.4988 8.72112 14.2273 7.9955 14.2273H6.49595C5.89476 14.2273 5.61836 14.3938 5.5078 14.7407L5.13461 15.844H6.23332L7.31138 15.837C8.26501 15.8301 9.04592 15.7607 9.95813 14.935C10.9255 14.0539 12.0451 11.7919 11.8515 10.4875ZM24.0002 9.15527H21.9063L19.9368 11.2576C19.7088 11.5004 19.4738 11.7433 19.2458 12.0278H19.225L20.2063 9.15527H18.4994L16.1983 15.837H17.9051L18.6376 13.7347L19.3977 13.0894L19.999 14.9906C20.1855 15.5804 20.3791 15.837 20.7937 15.837H22.0998L20.7592 12.1041L24.0002 9.15527Z" fill="#888888"/>
</g>
<defs>
<clipPath id="clip0_2041_18015">
<rect width="24" height="24" fill="white" transform="translate(0 0.5)"/>
</clipPath>
</defs>
</svg>
