<svg width="24" height="24" viewBox="0 0 24 24" fill="none" xmlns="http://www.w3.org/2000/svg">
<path d="M6.25 3.5C6.05109 3.5 5.86032 3.57902 5.71967 3.71967C5.57902 3.86032 5.5 4.05109 5.5 4.25V11.627C5.05321 11.315 4.53944 11.1122 4 11.035V4.25C4 3.65326 4.23705 3.08097 4.65901 2.65901C5.08097 2.23705 5.65326 2 6.25 2H10.631C10.9265 2 11.2191 2.05819 11.492 2.17126C11.765 2.28434 12.0131 2.45007 12.222 2.659L16.841 7.278C17.263 7.7 17.5 8.272 17.5 8.868V17.25C17.5 17.8467 17.2629 18.419 16.841 18.841C16.419 19.2629 15.8467 19.5 15.25 19.5H12.855C12.6854 18.9314 12.3739 18.4152 11.95 18H15.25C15.4489 18 15.6397 17.921 15.7803 17.7803C15.921 17.6397 16 17.4489 16 17.25V8.998H12.754C12.1573 8.998 11.585 8.76095 11.163 8.33899C10.7411 7.91703 10.504 7.34474 10.504 6.748V3.5H6.25ZM12.004 4.562V6.748C12.004 7.162 12.34 7.498 12.754 7.498H14.939L12.004 4.562ZM15.25 22H12.662C12.878 21.545 12.999 21.037 12.999 20.5H15.249C16.111 20.5 16.9376 20.1576 17.5471 19.5481C18.1566 18.9386 18.499 18.112 18.499 17.25V8.937L19.341 9.777C19.763 10.2 20 10.772 20 11.369V17.25C20 18.5098 19.4996 19.718 18.6088 20.6088C17.718 21.4996 16.5098 22 15.25 22ZM3.5 17C4.16304 17 4.79893 16.7366 5.26777 16.2678C5.73661 15.7989 6 15.163 6 14.5C6 13.837 5.73661 13.2011 5.26777 12.7322C4.79893 12.2634 4.16304 12 3.5 12C2.83696 12 2.20107 12.2634 1.73223 12.7322C1.26339 13.2011 1 13.837 1 14.5C1 15.163 1.26339 15.7989 1.73223 16.2678C2.20107 16.7366 2.83696 17 3.5 17ZM3.5 13.5C3.76522 13.5 4.01957 13.6054 4.20711 13.7929C4.39464 13.9804 4.5 14.2348 4.5 14.5C4.5 14.7652 4.39464 15.0196 4.20711 15.2071C4.01957 15.3946 3.76522 15.5 3.5 15.5C3.23478 15.5 2.98043 15.3946 2.79289 15.2071C2.60536 15.0196 2.5 14.7652 2.5 14.5C2.5 14.2348 2.60536 13.9804 2.79289 13.7929C2.98043 13.6054 3.23478 13.5 3.5 13.5ZM9.5 23C10.163 23 10.7989 22.7366 11.2678 22.2678C11.7366 21.7989 12 21.163 12 20.5C12 19.837 11.7366 19.2011 11.2678 18.7322C10.7989 18.2634 10.163 18 9.5 18C8.83696 18 8.20107 18.2634 7.73223 18.7322C7.26339 19.2011 7 19.837 7 20.5C7 21.163 7.26339 21.7989 7.73223 22.2678C8.20107 22.7366 8.83696 23 9.5 23ZM9.5 19.5C9.76522 19.5 10.0196 19.6054 10.2071 19.7929C10.3946 19.9804 10.5 20.2348 10.5 20.5C10.5 20.7652 10.3946 21.0196 10.2071 21.2071C10.0196 21.3946 9.76522 21.5 9.5 21.5C9.23478 21.5 8.98043 21.3946 8.79289 21.2071C8.60536 21.0196 8.5 20.7652 8.5 20.5C8.5 20.2348 8.60536 19.9804 8.79289 19.7929C8.98043 19.6054 9.23478 19.5 9.5 19.5ZM10.78 14.28C10.8537 14.2113 10.9128 14.1285 10.9538 14.0365C10.9948 13.9445 11.0168 13.8452 11.0186 13.7445C11.0204 13.6438 11.0018 13.5438 10.9641 13.4504C10.9264 13.357 10.8703 13.2722 10.799 13.201C10.7278 13.1297 10.643 13.0736 10.5496 13.0359C10.4562 12.9982 10.3562 12.9796 10.2555 12.9814C10.1548 12.9832 10.0555 13.0052 9.96346 13.0462C9.87146 13.0872 9.78866 13.1463 9.72 13.22L2.22 20.72C2.14631 20.7887 2.08721 20.8715 2.04622 20.9635C2.00523 21.0555 1.98319 21.1548 1.98141 21.2555C1.97963 21.3562 1.99816 21.4562 2.03588 21.5496C2.0736 21.643 2.12974 21.7278 2.20096 21.799C2.27218 21.8703 2.35701 21.9264 2.4504 21.9641C2.54379 22.0018 2.64382 22.0204 2.74452 22.0186C2.84523 22.0168 2.94454 21.9948 3.03654 21.9538C3.12854 21.9128 3.21134 21.8537 3.28 21.78L10.78 14.28Z" fill="#4286FA"/>
</svg>
