<svg width="24" height="25" viewBox="0 0 24 25" fill="none" xmlns="http://www.w3.org/2000/svg">
<g clip-path="url(#clip0_2041_17072)">
<path d="M12 19.5V15.5L9 12.5L14 8.5L16 11.5H19M2 18.5C2 19.2956 2.31607 20.0587 2.87868 20.6213C3.44129 21.1839 4.20435 21.5 5 21.5C5.79565 21.5 6.55871 21.1839 7.12132 20.6213C7.68393 20.0587 8 19.2956 8 18.5C8 17.7044 7.68393 16.9413 7.12132 16.3787C6.55871 15.8161 5.79565 15.5 5 15.5C4.20435 15.5 3.44129 15.8161 2.87868 16.3787C2.31607 16.9413 2 17.7044 2 18.5ZM16 18.5C16 19.2956 16.3161 20.0587 16.8787 20.6213C17.4413 21.1839 18.2044 21.5 19 21.5C19.7956 21.5 20.5587 21.1839 21.1213 20.6213C21.6839 20.0587 22 19.2956 22 18.5C22 17.7044 21.6839 16.9413 21.1213 16.3787C20.5587 15.8161 19.7956 15.5 19 15.5C18.2044 15.5 17.4413 15.8161 16.8787 16.3787C16.3161 16.9413 16 17.7044 16 18.5ZM16 5.5C16 5.76522 16.1054 6.01957 16.2929 6.20711C16.4804 6.39464 16.7348 6.5 17 6.5C17.2652 6.5 17.5196 6.39464 17.7071 6.20711C17.8946 6.01957 18 5.76522 18 5.5C18 5.23478 17.8946 4.98043 17.7071 4.79289C17.5196 4.60536 17.2652 4.5 17 4.5C16.7348 4.5 16.4804 4.60536 16.2929 4.79289C16.1054 4.98043 16 5.23478 16 5.5Z" stroke="#4286FA" stroke-width="2" stroke-linecap="round" stroke-linejoin="round"/>
<rect x="2.55908" y="5.7793" width="8.11464" height="7.24853" rx="1" transform="rotate(-41.0492 2.55908 5.7793)" fill="#4286FA"/>
</g>
<defs>
<clipPath id="clip0_2041_17072">
<rect width="24" height="24" fill="white" transform="translate(0 0.5)"/>
</clipPath>
</defs>
</svg>
