<svg width="24" height="25" viewBox="0 0 24 25" fill="none" xmlns="http://www.w3.org/2000/svg">
<path d="M7 21.5L10 17.5M16 21.5L14 17.5L11 14.5L12 8.5M12 4.5C12 4.76522 12.1054 5.01957 12.2929 5.20711C12.4804 5.39464 12.7348 5.5 13 5.5C13.2652 5.5 13.5196 5.39464 13.7071 5.20711C13.8946 5.01957 14 4.76522 14 4.5C14 4.23478 13.8946 3.98043 13.7071 3.79289C13.5196 3.60536 13.2652 3.5 13 3.5C12.7348 3.5 12.4804 3.60536 12.2929 3.79289C12.1054 3.98043 12 4.23478 12 4.5Z" stroke="#888888" stroke-width="2" stroke-linecap="round" stroke-linejoin="round"/>
<path d="M6 12.5L8 9.5L12 8.5L15 11.5L18 12.5" stroke="#888888" stroke-width="2" stroke-linecap="round" stroke-linejoin="round"/>
</svg>
